inDegrees=no
num_controls=7
num_derivatives=13
num_iterations=70
num_multipliers=7
num_parameters=0
num_slacks=7
num_states=26
objective=0.470336
objective_accelerations=0.057783
objective_balance=0.001911
objective_effort=0.019408
objective_height=0.381434
objective_ligament=0.009799
solver_duration=933.376900
status=Solve_Succeeded
success=true
DataType=double
version=3
OpenSimVersion=4.5
endheader
time	/jointset/ground_pelvis/pelvis_tilt/value	/jointset/ground_pelvis/pelvis_tx/value	/jointset/ground_pelvis/pelvis_ty/value	/jointset/hip_l/hip_flexion_l/value	/jointset/hip_l/hip_adduction_l/value	/jointset/hip_l/hip_rotation_l/value	/jointset/back/lumbar_extension/value	/jointset/patellofemoral_l/patellar_flexion_l/value	/jointset/knee_l/knee_flexion_l/value	/jointset/knee_l/knee_adduction_l/value	/jointset/knee_l/knee_rotation_l/value	/jointset/ankle_l/ankle_angle_l/value	/jointset/subtalar_l/subtalar_angle_l/value	/jointset/ground_pelvis/pelvis_tilt/speed	/jointset/ground_pelvis/pelvis_tx/speed	/jointset/ground_pelvis/pelvis_ty/speed	/jointset/hip_l/hip_flexion_l/speed	/jointset/hip_l/hip_adduction_l/speed	/jointset/hip_l/hip_rotation_l/speed	/jointset/back/lumbar_extension/speed	/jointset/patellofemoral_l/patellar_flexion_l/speed	/jointset/knee_l/knee_flexion_l/speed	/jointset/knee_l/knee_adduction_l/speed	/jointset/knee_l/knee_rotation_l/speed	/jointset/ankle_l/ankle_angle_l/speed	/jointset/subtalar_l/subtalar_angle_l/speed	/forceset/tau_hip_flexion_l	/forceset/tau_hip_adduction_l	/forceset/tau_hip_rotation_l	/forceset/tau_knee_flexion_l	/forceset/tau_ankle_angle_l	/forceset/tau_subtalar_angle_l	/forceset/tau_lumbar_extension	lambda_cid13_p0	lambda_cid13_p1	lambda_cid13_p2	lambda_cid13_p3	lambda_cid13_p4	lambda_cid13_p5	lambda_cid14_p0	/jointset/ground_pelvis/pelvis_tilt/accel	/jointset/ground_pelvis/pelvis_tx/accel	/jointset/ground_pelvis/pelvis_ty/accel	/jointset/hip_l/hip_flexion_l/accel	/jointset/hip_l/hip_adduction_l/accel	/jointset/hip_l/hip_rotation_l/accel	/jointset/back/lumbar_extension/accel	/jointset/patellofemoral_l/patellar_flexion_l/accel	/jointset/knee_l/knee_flexion_l/accel	/jointset/knee_l/knee_adduction_l/accel	/jointset/knee_l/knee_rotation_l/accel	/jointset/ankle_l/ankle_angle_l/accel	/jointset/subtalar_l/subtalar_angle_l/accel	gamma_cid13_p0	gamma_cid13_p1	gamma_cid13_p2	gamma_cid13_p3	gamma_cid13_p4	gamma_cid13_p5	gamma_cid14_p0
0.5	-0.4012154611855229	-0.05638340926911146	0.7845797186244633	1.139945848395514	-0.3548120725758345	-0.07203722544319027	-0.409388011015309	0.68643636481975	0.6864363648196624	-0.06073536853826975	-0.1744874064074415	0.05043814049820822	0.08143146211763448	-1.268850404982261	-0.3824598443466901	-0.4606672168023154	2.745545925526323	0.03891014917145238	0.4112976824681728	-0.2773027024251797	1.263393805535263	1.263393805535212	0.2024938982232953	0.0007809487791682799	-0.1168296739833192	0.0008321646279955319	-0.1652022808337004	0.02817593820582551	0.006588826359501836	-0.1383571274319056	0.09073742174355996	-0.01508082575024682	0.1508255398553512	2.904539861487313	6.159708201388579	-1.398585250109229	-6.492696757969114	-438.8029280348438	-46.01652628930645	-15.75379323592112	0.4984350541788856	0.6467806641624748	-0.3212771690282531	-1.723048247060426	0.09830161809525151	-0.4028809825587706	1.640334270388144	-1.072942918998965	-1.072942918998957	-0.3808452219569667	0.06901330350115842	0.0279721481656919	0.1147714114973348	-4.021774813984602e-08	-8.804560716712342e-07	-2.995640876383971e-08	-1.755638807444424e-07	-2.733563215200795e-07	2.007099583345994e-07	-1.647813830928992e-07
0.51	-0.4138765063259961	-0.0601751172434665	0.7799581281592083	1.167310144414148	-0.3544191297503939	-0.06794660256474355	-0.412080096779254	0.699014608079183	0.6990146080791164	-0.05873058033672788	-0.1744785109194077	0.0492711710622683	0.08144439484664273	-1.263196378763127	-0.3758344761893266	-0.4635445623581168	2.726944353324619	0.03966742374593924	0.4067684132448701	-0.2611208028967636	1.252075517201752	1.252075517201716	0.198456378324735	0.0009817030306081942	-0.1165466361024382	0.001748616302252641	-0.1715971449105809	0.02893264218169687	0.006196239642229369	-0.1387380328227138	0.09259365835806321	-0.01445619710101851	0.1552523930114688	3.365187326631625	5.930987223458198	-1.502857717675035	-6.951237653378011	-442.0964025646625	-46.05902025778129	-15.24170423468281	0.6231998843892739	0.677473107855966	-0.2550704907591375	-1.984077376437655	0.06293778739683885	-0.4868461209975011	1.606164914262504	-1.188138668014086	-1.188138668011915	-0.4164813125835917	-0.006821873121008395	0.03107414863564901	0.0793467249462745	-4.375871122890384e-08	-8.011686331416308e-07	1.896421266549761e-08	-1.608398107295562e-07	-2.651033352361329e-07	2.155264701025343e-07	-1.608415291688987e-07
0.52	-0.4264761485085529	-0.06389915989298166	0.7753109427900146	1.194477351576826	-0.3540189146971527	-0.06390305162428775	-0.4146105541238745	0.711474295079786	0.7114742950797355	-0.05676642252191693	-0.1744680935606816	0.04810755291325468	0.08146634502830483	-1.256569813399648	-0.3689267793787094	-0.4657861975900039	2.706128154334422	0.04036459473128105	0.401883294870303	-0.244977018560577	1.239682553768762	1.239682553768741	0.1943678208750568	0.001085322918586216	-0.1161594165981035	0.002635655158763728	-0.1779920089874355	0.02968934615756692	0.005803652925006661	-0.1391189382135161	0.09444989497256777	-0.01383156845179144	0.1596792461676128	3.824739981002776	5.702031029911145	-1.606605184396235	-7.414484421788422	-445.4100459891641	-46.13159568829096	-14.73259448431396	0.692942883047664	0.7032463948131826	-0.1941351042454149	-2.165973604758829	0.08628090026622366	-0.4740508128117467	1.632711231942318	-1.287877938894804	-1.287877938894803	-0.3910527321804946	0.04958643080863599	0.04880847285638715	0.1088888479480934	-4.515037730911529e-08	-7.54374845197914e-07	3.371681622246991e-08	-1.531033741872495e-07	-2.519224739354465e-07	2.295833337003685e-07	-1.575433103368713e-07
0.53	-0.4390047898824433	-0.06755290453470179	0.7706445067580624	1.221425710137259	-0.3536121140145558	-0.05990956874157079	-0.4169799076863638	0.7238047228239353	0.7238047228238595	-0.05484376926884232	-0.1744567527488997	0.04694811340999532	0.08149685958964599	-1.248997913432451	-0.3617927762502706	-0.4673948505333467	2.683196580698288	0.04097773318280668	0.3967917713087978	-0.2289242374007866	1.226224955593034	1.226224955593052	0.1901252349555695	0.001189425468503443	-0.1157316194241365	0.003447755728591941	-0.1845004610079959	0.03048445516074716	0.005392248784604821	-0.1390679099365544	0.09548411124267922	-0.01321951910529993	0.1640746332782733	4.014746155470889	5.502183335989499	-1.688093083410201	-7.556380635353086	-448.6838465687184	-46.1164243114671	-14.22814912617707	0.8133730294863871	0.7228533710203157	-0.1283556492019295	-2.408822033507044	0.04628710432405878	-0.5300502091465422	1.586980038615214	-1.40137551436413	-1.401375514358335	-0.4466550241796857	-0.008148277457756814	0.03926582556607895	0.06455644506055802	-3.2580375297678e-08	-7.683241180700241e-07	-9.331577773037144e-08	-1.657256308744874e-07	-2.123195386032672e-07	2.170057137215686e-07	-1.431337993700933e-07
